HIERARCHY
ROOT joint_Root
{
	OFFSET 0.0 0.0 0.0
	CHANNELS 6 Xposition Yposition Zposition Zrotation Xrotation Yrotation 
	JOINT Hips
	{
		OFFSET 4.5925 91.4895 -427.239
		CHANNELS 6 Xposition Yposition Zposition Zrotation Xrotation Yrotation 
		JOINT Spine
		{
			OFFSET 15.7357 0.0 0.0
			CHANNELS 6 Xposition Yposition Zposition Zrotation Xrotation Yrotation 
			JOINT Chest
			{
				OFFSET 8.98455 -0.406207 0.0
				CHANNELS 6 Xposition Yposition Zposition Zrotation Xrotation Yrotation 
				JOINT Neck
				{
					OFFSET 16.3773 0.0 0.0
					CHANNELS 6 Xposition Yposition Zposition Zrotation Xrotation Yrotation 
					JOINT Head
					{
						OFFSET 6.45672 0.0 0.0
						CHANNELS 6 Xposition Yposition Zposition Zrotation Xrotation Yrotation 
						End Site
						{
							OFFSET 0.0 0.0 0.0
						}
					}
				}
				JOINT Shoulder_L
				{
					OFFSET 12.9942 -0.242716 4.98039
					CHANNELS 6 Xposition Yposition Zposition Zrotation Xrotation Yrotation 
					JOINT UpperArm_L
					{
						OFFSET 5.34809 0.0 0.0
						CHANNELS 6 Xposition Yposition Zposition Zrotation Xrotation Yrotation 
						JOINT LowerArm_L
						{
							OFFSET 24.3286 1.87007e-05 0.0
							CHANNELS 6 Xposition Yposition Zposition Zrotation Xrotation Yrotation 
							JOINT Hand_L
							{
								OFFSET 22.2916 0.0 0.0
								CHANNELS 6 Xposition Yposition Zposition Zrotation Xrotation Yrotation 
								End Site
								{
									OFFSET 0.0 0.0 0.0
								}
							}
						}
					}
				}
				JOINT Shoulder_R
				{
					OFFSET 12.9945 -0.242716 -4.98039
					CHANNELS 6 Xposition Yposition Zposition Zrotation Xrotation Yrotation 
					JOINT UpperArm_R
					{
						OFFSET -5.34813 0.0 0.0
						CHANNELS 6 Xposition Yposition Zposition Zrotation Xrotation Yrotation 
						JOINT LowerArm_R
						{
							OFFSET -24.3289 0.000322201 0.0
							CHANNELS 6 Xposition Yposition Zposition Zrotation Xrotation Yrotation 
							JOINT Hand_R
							{
								OFFSET -22.2915 -0.000108084 0.0
								CHANNELS 6 Xposition Yposition Zposition Zrotation Xrotation Yrotation 
								End Site
								{
									OFFSET 0.0 0.0 0.0
								}
							}
						}
					}
				}
			}
		}
		JOINT UpperLeg_L
		{
			OFFSET -2.19248 -6.46944 0.0
			CHANNELS 6 Xposition Yposition Zposition Zrotation Xrotation Yrotation 
			JOINT LowerLeg_L
			{
				OFFSET 39.0811 0.0 -1.23785e-05
				CHANNELS 6 Xposition Yposition Zposition Zrotation Xrotation Yrotation 
				JOINT Foot_L
				{
					OFFSET 40.9854 0.0 -1.26872e-05
					CHANNELS 6 Xposition Yposition Zposition Zrotation Xrotation Yrotation 
					JOINT Toes_L
					{
						OFFSET 11.7543 0.0 0.0
						CHANNELS 6 Xposition Yposition Zposition Zrotation Xrotation Yrotation 
						End Site
						{
							OFFSET 0.0 0.0 0.0
						}
					}
				}
			}
		}
		JOINT UpperLeg_R
		{
			OFFSET -2.19251 6.46944 0.0
			CHANNELS 6 Xposition Yposition Zposition Zrotation Xrotation Yrotation 
			JOINT LowerLeg_R
			{
				OFFSET -39.0811 -0.00228153 -0.0401928
				CHANNELS 6 Xposition Yposition Zposition Zrotation Xrotation Yrotation 
				JOINT Foot_R
				{
					OFFSET -40.9854 0.0 0.0
					CHANNELS 6 Xposition Yposition Zposition Zrotation Xrotation Yrotation 
					JOINT Toes_R
					{
						OFFSET -11.7543 0.0 0.0
						CHANNELS 6 Xposition Yposition Zposition Zrotation Xrotation Yrotation 
						End Site
						{
							OFFSET 0.0 0.0 0.0
						}
					}
				}
			}
		}
	}
}
MOTION
Frames:	4
Frame Time:	0.0333333
0.000000 0.000000 0.000000 0.000000 0.000000 -0.000000 -104.447000 89.843800 181.639000 98.140500 85.506900 -8.200480 15.735700 0.000005 -0.000001 96.710200 80.934800 -96.763100 8.984550 -0.406207 -0.000000 10.246100 2.103420 -0.294353 16.377300 -0.000001 -0.000001 -1.009730 -4.874520 2.937060 6.456720 -0.000001 -0.000000 -5.111470 -4.961960 2.465540 12.994200 -0.242716 4.980390 -90.468700 1.735410 -74.884300 5.348090 -0.000007 -0.000001 -69.924300 31.033100 -8.326680 24.328600 0.000019 0.000005 5.785980 18.193600 -17.979900 22.291600 -0.000001 0.000005 11.492800 5.190820 2.948310 12.994500 -0.242716 -4.980390 89.061800 8.212440 -83.459700 -5.348130 -0.000001 -0.000004 -54.655700 27.996000 -24.204600 -24.328900 0.000322 -0.000009 -1.560080 -2.763800 -29.442500 -22.291500 -0.000108 -0.000004 18.108500 5.413550 -3.383090 -2.192480 -6.469440 -0.000000 178.551000 -7.599230 -26.966400 39.081100 -0.000007 -0.000012 0.088369 -0.139436 32.364500 40.985400 -0.000006 -0.000013 1.324640 -1.501100 -62.062500 11.754300 -0.000000 0.000003 -0.002221 -0.031457 -17.855900 -2.192510 6.469440 -0.000001 178.582000 21.673700 173.050000 -39.081100 -0.002282 -0.040193 0.020770 -0.026885 33.022600 -40.985400 0.000008 0.000006 7.418100 4.048240 -76.641200 -11.754300 -0.000006 -0.000006 -0.003523 -0.046388 -18.459900
0.000000 0.000000 0.000000 0.000000 0.000000 -0.000000 -102.054000 89.445200 181.438000 100.001000 84.757200 -10.770300 15.735700 0.000005 -0.000001 96.982400 81.066900 -97.369300 8.984550 -0.406207 -0.000000 9.980340 2.150830 -0.961154 16.377300 -0.000001 -0.000001 -1.236810 -4.819480 2.895050 6.456720 -0.000001 -0.000000 -5.775900 -5.092950 2.764250 12.994200 -0.242716 4.980390 -90.459500 1.704080 -74.908300 5.348090 -0.000007 -0.000001 -70.063300 30.908900 -8.458140 24.328600 0.000019 0.000005 5.834830 17.966800 -18.329300 22.291600 -0.000001 0.000005 11.565100 5.194280 2.862370 12.994500 -0.242716 -4.980390 89.071500 8.306590 -83.599400 -5.348130 -0.000001 -0.000004 -54.153300 28.262300 -24.061200 -24.328900 0.000322 -0.000009 -1.686800 -2.731600 -31.694300 -22.291500 -0.000108 -0.000004 18.338200 5.418390 -3.544390 -2.192480 -6.469440 -0.000000 178.196000 -7.074090 -29.657600 39.081100 -0.000007 -0.000012 0.097463 -0.179570 28.491200 40.985400 -0.000006 -0.000013 1.405160 -0.537250 -57.918800 11.754300 -0.000000 0.000003 -0.002468 -0.034439 -17.977200 -2.192510 6.469440 -0.000001 177.593000 21.204600 173.698000 -39.081100 -0.002282 -0.040193 0.016380 -0.019615 33.708300 -40.985400 0.000008 0.000006 6.846700 4.319820 -77.972600 -11.754300 -0.000006 -0.000006 -0.003495 -0.046084 -18.447400
0.000000 0.000000 0.000000 0.000000 0.000000 -0.000000 -99.137700 88.853100 181.074000 105.414000 83.817300 -16.578100 15.735700 0.000005 -0.000001 96.391100 81.169100 -97.282300 8.984550 -0.406207 -0.000000 9.805980 1.938220 -1.947500 16.377300 -0.000001 -0.000001 -1.061490 -4.844170 2.987140 6.456720 -0.000001 -0.000000 -6.303540 -5.156460 2.906370 12.994200 -0.242716 4.980390 -90.499100 1.861690 -74.989200 5.348090 -0.000007 -0.000001 -69.774700 31.135700 -9.120090 24.328600 0.000019 0.000005 5.739870 17.734200 -18.262400 22.291600 -0.000001 0.000005 11.515500 5.201780 2.674170 12.994500 -0.242716 -4.980390 89.068700 8.516540 -83.736100 -5.348130 -0.000001 -0.000004 -53.580600 28.774100 -24.033700 -24.328900 0.000322 -0.000009 -1.870750 -2.848390 -33.299900 -22.291500 -0.000108 -0.000004 18.455300 5.424040 -3.735540 -2.192480 -6.469440 -0.000000 177.315000 -6.744940 -30.951000 39.081100 -0.000007 -0.000012 0.048247 -0.085977 29.299400 40.985400 -0.000006 -0.000013 1.674480 -1.154480 -52.677100 11.754300 -0.000000 0.000003 -0.002164 -0.030760 -17.827600 -2.192510 6.469440 -0.000001 175.941000 19.858800 174.200000 -39.081100 -0.002282 -0.040193 0.016239 -0.018033 35.682700 -40.985400 0.000008 0.000006 5.955990 3.748290 -79.002100 -11.754300 -0.000006 -0.000006 -0.210769 -0.287881 -18.880200
0.000000 0.000000 0.000000 0.000000 0.000000 -0.000000 -95.796200 88.151900 180.699000 104.968000 82.863600 -15.703400 15.735700 0.000005 -0.000001 95.837000 81.117000 -97.031600 8.984550 -0.406207 -0.000000 9.931020 1.773010 -2.541570 16.377300 -0.000001 -0.000001 -0.837639 -4.844000 2.936280 6.456720 -0.000001 -0.000000 -5.992520 -5.214920 2.885990 12.994200 -0.242716 4.980390 -90.634700 2.380350 -75.064900 5.348090 -0.000007 -0.000001 -68.818100 31.945800 -10.127100 24.328600 0.000019 0.000005 5.632390 17.558600 -18.102800 22.291600 -0.000001 0.000005 11.446200 5.203480 2.631720 12.994500 -0.242716 -4.980390 89.025400 8.861810 -83.698500 -5.348130 -0.000001 -0.000004 -53.059600 29.525500 -23.947700 -24.328900 0.000322 -0.000009 -1.971430 -2.920100 -34.031500 -22.291500 -0.000108 -0.000004 18.491000 5.430230 -3.946970 -2.192480 -6.469440 -0.000000 177.385000 -6.474730 -31.659500 39.081100 -0.000007 -0.000012 -0.077964 0.109153 35.537400 40.985400 -0.000006 -0.000013 1.408230 -1.419330 -55.190200 11.754300 -0.000000 0.000003 -0.000018 -0.000230 -16.586600 -2.192510 6.469440 -0.000001 174.810000 17.276500 174.018000 -39.081100 -0.002282 -0.040193 0.024576 -0.024987 40.444300 -40.985400 0.000008 0.000006 4.878210 1.970060 -77.968400 -11.754300 -0.000006 -0.000006 -0.013167 -0.125949 -21.709200
